<?xml version="1.0" encoding="utf-8"?>
<!-- Generator: Adobe Illustrator 16.0.0, SVG Export Plug-In . SVG Version: 6.00 Build 0)  -->
<!DOCTYPE svg PUBLIC "-//W3C//DTD SVG 1.1//EN" "http://www.w3.org/Graphics/SVG/1.1/DTD/svg11.dtd">
<svg version="1.1" id="Layer_1" xmlns="http://www.w3.org/2000/svg" xmlns:xlink="http://www.w3.org/1999/xlink" x="0px" y="0px"
	 width="309px" height="105px" viewBox="0 0 309 105" enable-background="new 0 0 309 105" xml:space="preserve">
<g>
	<g>
		
			<radialGradient id="SVGID_1_" cx="-273.3972" cy="189.3242" r="24.3086" gradientTransform="matrix(0.3557 -0.9346 -0.9346 -0.3557 428.0023 -166.5001)" gradientUnits="userSpaceOnUse">
			<stop  offset="0" style="stop-color:#F9EC31"/>
			<stop  offset="1" style="stop-color:#8BC53F"/>
		</radialGradient>
		<path fill="url(#SVGID_1_)" d="M151.257,10.634c-0.017,0.653-0.031,1.308-0.041,1.965c-0.216-0.744-0.437-1.488-0.661-2.232
			c-0.2-0.073-0.403-0.143-0.61-0.208c-0.001,0.695-0.001,1.391,0.004,2.089c-0.238-0.767-0.481-1.534-0.729-2.3
			c-0.195-0.053-0.391-0.104-0.588-0.149c0.013,0.709,0.031,1.42,0.052,2.133c-0.254-0.764-0.512-1.526-0.773-2.29
			c-0.194-0.038-0.392-0.074-0.589-0.108c0.029,0.705,0.063,1.412,0.1,2.119c-0.262-0.743-0.53-1.486-0.801-2.229
			c-0.199-0.028-0.399-0.053-0.603-0.077c0.044,0.686,0.091,1.373,0.144,2.061c-0.267-0.71-0.537-1.42-0.812-2.131
			c-0.208-0.02-0.417-0.037-0.626-0.052c0.058,0.657,0.117,1.315,0.181,1.975c-0.266-0.67-0.533-1.342-0.806-2.012
			c-0.218-0.011-0.437-0.021-0.655-0.028c0.067,0.622,0.14,1.244,0.212,1.866c-0.261-0.626-0.526-1.254-0.794-1.88
			c-0.229-0.004-0.456-0.006-0.684-0.006c0.077,0.582,0.155,1.166,0.237,1.749c-0.254-0.582-0.514-1.163-0.773-1.744
			c-0.238,0.003-0.476,0.009-0.713,0.016c0.083,0.542,0.169,1.083,0.256,1.625c-0.246-0.536-0.496-1.07-0.746-1.606
			c-0.249,0.01-0.495,0.022-0.742,0.037c0.089,0.5,0.178,1,0.27,1.501c-0.236-0.491-0.477-0.981-0.715-1.472
			c-0.258,0.017-0.516,0.036-0.771,0.057c0.092,0.46,0.184,0.921,0.277,1.381c-0.226-0.449-0.455-0.898-0.683-1.347
			c-0.266,0.024-0.53,0.049-0.793,0.077c0.095,0.423,0.188,0.848,0.283,1.271c-0.214-0.411-0.433-0.821-0.65-1.231
			c-0.272,0.03-0.542,0.062-0.812,0.096c0.094,0.39,0.188,0.781,0.285,1.171c-0.204-0.377-0.413-0.752-0.62-1.128
			c-0.279,0.036-0.554,0.074-0.827,0.113c0.097,0.362,0.19,0.724,0.288,1.086c-0.195-0.348-0.395-0.694-0.593-1.041
			c-0.285,0.042-0.563,0.085-0.839,0.131c0.097,0.337,0.191,0.676,0.291,1.015c-0.19-0.324-0.383-0.646-0.573-0.97
			c-0.288,0.048-0.569,0.097-0.844,0.146c0.099,0.32,0.196,0.641,0.294,0.962c-0.186-0.305-0.373-0.609-0.561-0.915
			c-0.287,0.054-0.568,0.107-0.843,0.16c0.102,0.309,0.201,0.619,0.303,0.928c-0.183-0.294-0.369-0.586-0.556-0.878
			c-0.29,0.058-0.569,0.115-0.837,0.172c0.105,0.305,0.21,0.609,0.318,0.913c-0.188-0.288-0.376-0.573-0.564-0.86
			c-0.289,0.063-0.564,0.124-0.825,0.183c0.113,0.307,0.225,0.613,0.338,0.919c-0.192-0.288-0.389-0.575-0.583-0.862
			c-0.292,0.067-0.562,0.132-0.81,0.193c0.123,0.315,0.244,0.631,0.368,0.945c-0.204-0.295-0.411-0.589-0.616-0.883
			c-0.308,0.077-0.572,0.146-0.787,0.203c0.07,0.172,0.142,0.343,0.211,0.516c-0.167,0.083-0.334,0.164-0.501,0.246
			c0.123,0.186,0.274,0.413,0.453,0.675c0.351-0.083,0.7-0.165,1.048-0.25c-0.302,0.153-0.602,0.308-0.902,0.461
			c0.144,0.21,0.303,0.438,0.476,0.683c0.337-0.086,0.674-0.169,1.01-0.256c-0.289,0.152-0.576,0.307-0.863,0.461
			c0.154,0.216,0.32,0.446,0.494,0.686c0.331-0.09,0.663-0.178,0.993-0.269c-0.282,0.157-0.563,0.313-0.844,0.471
			c0.162,0.222,0.333,0.449,0.511,0.686c0.333-0.095,0.667-0.189,0.999-0.286c-0.282,0.163-0.563,0.328-0.843,0.491
			c0.168,0.222,0.344,0.448,0.523,0.68c0.342-0.104,0.685-0.206,1.025-0.311c-0.287,0.174-0.574,0.35-0.858,0.523
			c0.172,0.22,0.35,0.444,0.532,0.67c0.357-0.115,0.717-0.227,1.073-0.343c-0.299,0.188-0.595,0.377-0.892,0.565
			c0.175,0.217,0.354,0.435,0.54,0.655c0.378-0.128,0.758-0.254,1.135-0.383c-0.314,0.206-0.625,0.413-0.938,0.62
			c0.179,0.21,0.358,0.422,0.542,0.635c0.404-0.144,0.811-0.286,1.213-0.432c-0.332,0.228-0.661,0.457-0.991,0.686
			c0.178,0.203,0.357,0.407,0.542,0.611c0.435-0.162,0.872-0.323,1.305-0.487c-0.353,0.252-0.705,0.508-1.056,0.762
			c0.178,0.195,0.357,0.39,0.541,0.584c0.469-0.183,0.938-0.366,1.405-0.552c-0.377,0.281-0.751,0.565-1.126,0.848
			c0.178,0.186,0.356,0.37,0.537,0.554c0.506-0.207,1.012-0.414,1.515-0.624c-0.402,0.313-0.802,0.628-1.199,0.942
			c0.175,0.175,0.352,0.348,0.53,0.521c0.542-0.233,1.085-0.467,1.625-0.704c-0.427,0.347-0.851,0.695-1.272,1.043
			c0.173,0.164,0.347,0.325,0.522,0.486c0.58-0.261,1.16-0.523,1.736-0.789c-0.45,0.381-0.895,0.765-1.339,1.148
			c0.17,0.152,0.341,0.301,0.515,0.451c0.616-0.291,1.232-0.583,1.845-0.877c-0.47,0.417-0.937,0.834-1.399,1.253
			c0.167,0.14,0.337,0.278,0.507,0.415c0.649-0.32,1.296-0.643,1.94-0.967c-0.486,0.45-0.969,0.901-1.448,1.354
			c0.167,0.127,0.334,0.254,0.502,0.377c0.677-0.349,1.352-0.699,2.022-1.052c-0.495,0.479-0.988,0.961-1.477,1.444
			c0.166,0.117,0.333,0.231,0.5,0.342c0.696-0.374,1.391-0.751,2.08-1.131c-0.499,0.504-0.993,1.009-1.481,1.517
			c0.17,0.106,0.341,0.209,0.512,0.311c0.703-0.396,1.403-0.794,2.101-1.196c-0.489,0.519-0.975,1.038-1.457,1.56
			c0.18,0.097,0.357,0.189,0.538,0.279c0.694-0.408,1.387-0.819,2.074-1.233c-0.468,0.519-0.931,1.038-1.391,1.558
			c0.196,0.088,0.396,0.171,0.593,0.25c0.663-0.407,1.322-0.816,1.978-1.228c-0.429,0.497-0.854,0.996-1.275,1.495
			c0.224,0.081,0.445,0.158,0.666,0.233c0.606-0.39,1.211-0.782,1.813-1.176c-0.383,0.463-0.761,0.928-1.138,1.395
			c0.252,0.078,0.503,0.152,0.749,0.221c0.54-0.363,1.077-0.727,1.612-1.092c-0.33,0.418-0.655,0.838-0.979,1.259
			c0.292,0.074,0.58,0.139,0.861,0.198c0.456-0.32,0.911-0.642,1.361-0.964c-0.268,0.357-0.532,0.716-0.797,1.074
			c0.349,0.064,0.688,0.115,1.021,0.157c0.348-0.255,0.692-0.512,1.039-0.769c-0.195,0.273-0.39,0.547-0.582,0.821
			c0.434,0.042,0.854,0.067,1.261,0.074c0.201-0.155,0.402-0.31,0.602-0.466c-0.104,0.157-0.21,0.313-0.313,0.468
			c4.561-0.006,7.459-2.223,8.725-5.549c1.267-3.327,0.575-6.909-2.826-9.947c-0.026,0.185-0.052,0.372-0.076,0.559
			c-0.046-0.249-0.094-0.499-0.141-0.748c-0.309-0.266-0.64-0.527-0.99-0.783c-0.038,0.333-0.076,0.666-0.112,1
			c-0.087-0.421-0.175-0.843-0.264-1.265c-0.277-0.19-0.564-0.377-0.867-0.562c-0.042,0.443-0.081,0.888-0.119,1.333
			c-0.123-0.542-0.249-1.083-0.376-1.626c-0.25-0.144-0.508-0.285-0.774-0.425c-0.038,0.53-0.074,1.061-0.105,1.593
			c-0.157-0.629-0.315-1.258-0.479-1.888c-0.229-0.113-0.466-0.224-0.707-0.333c-0.028,0.598-0.056,1.197-0.078,1.798
			c-0.188-0.694-0.378-1.389-0.571-2.084C151.696,10.812,151.479,10.722,151.257,10.634z M127.052,11.32
			c-0.264,0.072-0.407,0.114-0.407,0.114s0.079,0.127,0.229,0.355c0.146-0.032,0.296-0.066,0.443-0.099
			C127.229,11.567,127.141,11.443,127.052,11.32z"/>
	</g>
	<g>
		<path d="M54.448,53.34c0,2.602-0.511,4.904-1.529,6.908c-1.02,2.004-2.433,3.662-4.236,4.975
			c-1.781,1.313-3.739,2.273-5.871,2.883c-2.133,0.61-4.395,0.914-6.785,0.914h-5.59v15.117c0,0.821,0.135,1.543,0.404,2.162
			c0.269,0.621,0.826,1.096,1.67,1.424c0.422,0.164,1.166,0.316,2.232,0.457c1.065,0.141,2.044,0.223,2.936,0.246v2.496h-21.41
			v-2.496c0.563-0.047,1.376-0.128,2.443-0.246c1.065-0.117,1.811-0.269,2.231-0.457c0.703-0.304,1.214-0.75,1.529-1.336
			c0.316-0.585,0.476-1.336,0.476-2.25v-36c0-0.82-0.118-1.559-0.353-2.215c-0.234-0.656-0.786-1.148-1.652-1.477
			c-0.891-0.304-1.774-0.521-2.653-0.65c-0.879-0.128-1.636-0.216-2.269-0.264v-2.496h22.781c4.641,0,8.408,1.12,11.303,3.357
			C53,46.631,54.448,49.614,54.448,53.34z M43.76,61.848c0.796-1.125,1.324-2.291,1.582-3.498s0.387-2.291,0.387-3.252
			c0-1.336-0.158-2.695-0.475-4.078s-0.861-2.589-1.635-3.621c-0.821-1.102-1.898-1.957-3.234-2.566s-3-0.914-4.992-0.914h-4.957
			v22.043h3.586c2.531,0,4.588-0.392,6.17-1.178C41.774,63.999,42.963,63.021,43.76,61.848z"/>
		<path d="M75.506,90.922h-16.91v-2.32c0.539-0.047,1.113-0.1,1.723-0.158c0.609-0.058,1.113-0.146,1.513-0.264
			c0.655-0.211,1.147-0.58,1.477-1.107c0.328-0.527,0.492-1.213,0.492-2.059V44.836c0-0.844-0.182-1.636-0.545-2.375
			c-0.364-0.739-0.838-1.319-1.424-1.741c-0.422-0.281-1.195-0.539-2.32-0.774c-1.125-0.234-2.027-0.375-2.707-0.422v-2.25
			L69.846,36.5l0.492,0.527v47.566c0,0.821,0.152,1.494,0.457,2.021c0.304,0.526,0.796,0.932,1.477,1.213
			c0.516,0.233,1.025,0.409,1.529,0.526c0.504,0.119,1.072,0.199,1.705,0.246V90.922z"/>
		<path d="M112.702,90.29c-1.103,0.399-2.069,0.721-2.9,0.967c-0.832,0.246-1.775,0.369-2.83,0.369
			c-1.828,0-3.287-0.428-4.377-1.283c-1.09-0.854-1.788-2.104-2.092-3.743h-0.211c-1.524,1.688-3.159,2.977-4.904,3.866
			c-1.746,0.892-3.85,1.336-6.311,1.336c-2.603,0-4.741-0.797-6.416-2.391c-1.677-1.595-2.515-3.679-2.515-6.259
			c0-1.336,0.188-2.53,0.563-3.586c0.375-1.055,0.937-2.004,1.688-2.848c0.585-0.703,1.359-1.33,2.32-1.881
			c0.961-0.55,1.863-0.99,2.707-1.318c1.055-0.397,3.193-1.137,6.416-2.215c3.222-1.078,5.396-1.921,6.521-2.531v-3.479
			c0-0.304-0.064-0.892-0.192-1.758c-0.129-0.867-0.404-1.688-0.826-2.461c-0.469-0.867-1.131-1.623-1.986-2.269
			c-0.855-0.645-2.068-0.967-3.639-0.967c-1.078,0-2.08,0.182-3.006,0.545c-0.926,0.364-1.577,0.744-1.951,1.143
			c0,0.47,0.111,1.16,0.334,2.074s0.334,1.758,0.334,2.531c0,0.821-0.369,1.57-1.107,2.25c-0.737,0.68-1.764,1.02-3.075,1.02
			c-1.172,0-2.034-0.416-2.584-1.247c-0.552-0.832-0.826-1.763-0.826-2.796c0-1.077,0.381-2.108,1.143-3.094
			c0.762-0.983,1.752-1.863,2.972-2.637c1.055-0.656,2.332-1.213,3.832-1.67s2.965-0.686,4.395-0.686
			c1.969,0,3.686,0.135,5.15,0.403c1.464,0.271,2.795,0.851,3.989,1.74c1.195,0.867,2.104,2.045,2.726,3.533
			c0.621,1.489,0.932,3.405,0.932,5.748c0,3.352-0.035,6.323-0.104,8.911c-0.07,2.591-0.105,5.421-0.105,8.49
			c0,0.914,0.158,1.642,0.475,2.181c0.316,0.54,0.804,0.997,1.46,1.37c0.352,0.211,0.907,0.33,1.67,0.353
			c0.761,0.022,1.541,0.035,2.338,0.035v2.252H112.702z M100.432,71.727c-1.992,0.588-3.739,1.164-5.238,1.728
			c-1.5,0.563-2.895,1.269-4.184,2.114c-1.172,0.799-2.098,1.744-2.777,2.836s-1.02,2.39-1.02,3.893c0,1.95,0.51,3.382,1.529,4.298
			c1.02,0.917,2.313,1.374,3.885,1.374c1.664,0,3.129-0.404,4.395-1.216c1.267-0.81,2.332-1.767,3.199-2.871L100.432,71.727z"/>
		<path d="M154.432,90.922h-16.945v-2.32c0.539-0.047,1.131-0.093,1.775-0.141c0.646-0.047,1.178-0.141,1.6-0.281
			c0.656-0.211,1.144-0.58,1.459-1.106c0.316-0.527,0.476-1.214,0.476-2.058V67.191c0-2.461-0.582-4.358-1.745-5.694
			s-2.579-2.004-4.246-2.004c-1.246,0-2.385,0.192-3.418,0.58c-1.033,0.387-1.95,0.86-2.748,1.424
			c-0.776,0.54-1.392,1.12-1.851,1.739c-0.458,0.621-0.793,1.121-1.004,1.494v19.935c0,0.797,0.164,1.454,0.491,1.969
			c0.328,0.517,0.82,0.914,1.478,1.195c0.492,0.233,1.024,0.41,1.6,0.526c0.574,0.119,1.166,0.199,1.775,0.246v2.32h-16.98v-2.32
			c0.539-0.047,1.096-0.093,1.67-0.141c0.574-0.047,1.072-0.141,1.494-0.281c0.656-0.209,1.144-0.578,1.459-1.105
			c0.316-0.526,0.476-1.211,0.476-2.055V63.636c0-0.796-0.17-1.528-0.511-2.194c-0.34-0.668-0.813-1.211-1.424-1.633
			c-0.444-0.281-0.973-0.486-1.582-0.615c-0.609-0.127-1.266-0.215-1.969-0.264v-2.32l11.531-0.772l0.492,0.492v4.887h0.176
			c0.563-0.563,1.266-1.235,2.108-2.021c0.845-0.785,1.641-1.424,2.392-1.916c0.867-0.563,1.897-1.031,3.094-1.406
			c1.195-0.375,2.543-0.563,4.043-0.563c3.328,0,5.795,1.037,7.4,3.11c1.604,2.074,2.407,4.834,2.407,8.279v18.034
			c0,0.822,0.142,1.482,0.423,1.986c0.28,0.504,0.761,0.896,1.44,1.178c0.563,0.234,1.049,0.399,1.459,0.492
			c0.41,0.094,0.979,0.164,1.705,0.211V90.922z"/>
		<path d="M211.245,73.555c0,5.203-1.642,9.575-4.923,13.113c-3.281,3.539-7.09,5.309-11.426,5.309
			c-1.897,0-3.768-0.293-5.606-0.879c-1.84-0.584-3.568-1.371-5.187-2.354l-2.602,4.043l-2.181-0.493
			c0.117-1.734,0.199-3.823,0.246-6.262c0.048-2.439,0.07-4.797,0.07-7.071V44.625c0-0.797-0.182-1.594-0.545-2.392
			c-0.364-0.797-0.826-1.372-1.389-1.724c-0.445-0.304-1.19-0.533-2.232-0.686c-1.043-0.153-1.881-0.252-2.514-0.299v-2.25
			l12.727-0.773l0.492,0.527V59.88l0.246,0.07c1.453-1.548,3.041-2.707,4.764-3.479c1.724-0.773,3.416-1.16,5.08-1.16
			c4.267,0,7.828,1.688,10.688,5.063C209.815,63.747,211.245,68.141,211.245,73.555z M203.897,73.801
			c0-1.734-0.188-3.503-0.563-5.309c-0.375-1.805-0.961-3.375-1.758-4.711c-0.798-1.359-1.841-2.461-3.13-3.305
			c-1.288-0.845-2.836-1.267-4.641-1.267c-1.641,0-3.076,0.322-4.307,0.967c-1.23,0.646-2.338,1.519-3.322,2.619v20.181
			c0.141,0.563,0.416,1.219,0.826,1.969s0.967,1.465,1.67,2.145c0.703,0.656,1.5,1.19,2.391,1.6c0.892,0.41,1.98,0.615,3.271,0.615
			c2.858,0,5.168-1.383,6.926-4.147S203.897,78.605,203.897,73.801z"/>
		<path d="M250.198,73.239c0,2.438-0.387,4.834-1.16,7.188c-0.774,2.355-1.877,4.354-3.309,5.994
			c-1.62,1.875-3.497,3.27-5.631,4.184c-2.135,0.914-4.529,1.371-7.18,1.371c-2.206,0-4.307-0.416-6.3-1.248
			c-1.994-0.832-3.766-2.043-5.314-3.639c-1.525-1.57-2.739-3.486-3.643-5.748s-1.354-4.799-1.354-7.611
			c0-5.414,1.578-9.844,4.733-13.289c3.154-3.444,7.291-5.168,12.404-5.168c4.856,0,8.863,1.636,12.02,4.904
			C248.62,63.448,250.198,67.802,250.198,73.239z M242.92,73.309c0-1.758-0.176-3.615-0.528-5.572
			c-0.352-1.956-0.881-3.614-1.585-4.975c-0.751-1.453-1.738-2.619-2.958-3.498c-1.221-0.879-2.712-1.318-4.473-1.318
			c-1.81,0-3.353,0.445-4.631,1.337c-1.28,0.891-2.319,2.108-3.117,3.655c-0.751,1.431-1.28,3.06-1.585,4.888
			c-0.306,1.827-0.458,3.598-0.458,5.309c0,2.25,0.182,4.33,0.546,6.24c0.364,1.911,0.945,3.616,1.744,5.115
			c0.798,1.5,1.802,2.678,3.011,3.532c1.209,0.856,2.706,1.283,4.49,1.283c2.935,0,5.26-1.418,6.974-4.254
			C242.063,82.216,242.92,78.301,242.92,73.309z"/>
		<path d="M288.588,90.922h-15.892v-2.32c1.06-0.117,1.96-0.233,2.699-0.352c0.741-0.117,1.111-0.422,1.111-0.914
			c0-0.211-0.118-0.539-0.353-0.984c-0.233-0.444-0.469-0.854-0.703-1.23c-0.588-0.914-1.393-2.141-2.413-3.676
			c-1.021-1.535-2.271-3.371-3.75-5.504c-1.222,1.523-2.35,3.007-3.381,4.449c-1.033,1.443-2.113,2.974-3.24,4.592
			c-0.165,0.233-0.334,0.526-0.51,0.879c-0.177,0.352-0.265,0.633-0.265,0.844c0,0.516,0.334,0.943,1.003,1.283
			s1.674,0.568,3.015,0.686v2.25h-12.832v-2.18c1.593-0.469,2.876-1.037,3.849-1.705c0.972-0.668,1.868-1.494,2.688-2.479
			c0.728-0.941,1.742-2.235,3.046-3.883c1.303-1.646,2.986-3.882,5.053-6.705c-1.196-1.705-2.655-3.791-4.378-6.256
			c-1.724-2.464-3.147-4.514-4.272-6.148c-0.61-0.892-1.309-1.611-2.095-2.162c-0.787-0.551-1.896-0.826-3.327-0.826v-2.32h15.082
			v2.32c-0.748,0-1.484,0.047-2.209,0.141s-1.087,0.305-1.087,0.633c0,0.211,0.07,0.445,0.211,0.703s0.316,0.541,0.527,0.844
			c0.515,0.797,1.315,2.027,2.403,3.69c1.087,1.664,2.265,3.421,3.528,5.272c0.822-1.125,1.779-2.438,2.871-3.938
			s2.097-2.929,3.013-4.287c0.094-0.164,0.188-0.369,0.281-0.615c0.093-0.246,0.141-0.486,0.141-0.722
			c0-0.491-0.405-0.884-1.217-1.178c-0.812-0.293-1.582-0.498-2.311-0.615v-2.25h12.797v2.181c-1.805,0.469-3.211,1.024-4.219,1.67
			c-1.009,0.645-1.863,1.389-2.566,2.231c-0.773,0.961-1.692,2.146-2.758,3.552c-1.065,1.407-2.56,3.377-4.479,5.908
			c2.131,2.999,3.865,5.459,5.2,7.381s2.683,3.902,4.041,5.94c0.68,1.032,1.437,1.846,2.269,2.442
			c0.832,0.599,1.974,0.944,3.428,1.037L288.588,90.922L288.588,90.922z"/>
	</g>
	<g>
		<g>
			<path fill="#231F20" d="M170.962,99.27h-7.285c-5.4-9.146-7.528-15.922-8.769-26.604c-1.25-10.574,0.437-21.949,6.656-30.898
				c0.754-1.118,1.612-2.167,2.5-3.18c0.858-0.982,1.685-1.887,2.475-2.876c1.583-1.95,3.032-4.003,4.287-6.169
				c2.528-4.317,4.182-9.149,4.604-14.163c0-4.149-0.535-10.563-1.223-12.628c0.747,1.988,2.292,9.301,2.292,12.271
				c-0.169,5.28-1.145,10.963-3.581,15.657c-1.207,2.356-2.623,4.597-4.178,6.727c-0.765,1.063-1.621,2.108-2.406,3.108
				c-0.758,0.963-1.487,1.95-2.119,3.002C159,51.911,157.978,62.334,159.625,72C161.27,81.76,165.478,90.986,170.962,99.27z"/>
		</g>
		<g>
			<path fill="#231F20" d="M172.813,26.918l-0.333,2.825c-2.417,0.064-3.184-0.06-4.996-0.649c-1.648-0.563-3.196-1.126-4.707-1.861
				c-3.011-1.479-5.882-3.12-8.755-4.739c-2.872-1.617-5.731-3.237-8.681-4.676c-2.949-1.405-5.987-2.767-9.275-3.151
				c3.316,0.117,6.515,1.247,9.595,2.423c3.088,1.21,6.091,2.608,9.086,3.991c2.991,1.383,5.975,2.78,8.99,3.971
				c1.508,0.591,3.025,1.13,4.533,1.511C169.764,26.952,171.646,27.162,172.813,26.918z"/>
		</g>
		<g>
			<path fill="#231F20" d="M161.654,80.922h-5.083c0.215-1.311,0.521-2.65,1.047-3.982c0.528-1.314,1.382-2.707,2.666-3.572
				c2.653-1.745,5.123-0.85,7.148-2.266c-1.464,2.024-4.533,2.53-5.432,4.138C161.044,76.697,161.26,78.811,161.654,80.922z"/>
		</g>
	</g>
	<g>
		
			<radialGradient id="SVGID_2_" cx="-407.6287" cy="542.0156" r="24.3092" gradientTransform="matrix(-0.3557 -0.9346 0.9346 -0.3557 -460.5854 -166.5001)" gradientUnits="userSpaceOnUse">
			<stop  offset="0" style="stop-color:#F9EC31"/>
			<stop  offset="1" style="stop-color:#8BC53F"/>
		</radialGradient>
		<path fill="url(#SVGID_2_)" d="M192.881,10.902c-0.194,0.695-0.385,1.39-0.572,2.084c-0.021-0.601-0.049-1.2-0.078-1.798
			c-0.241,0.11-0.477,0.221-0.707,0.333c-0.162,0.629-0.32,1.258-0.478,1.888c-0.032-0.532-0.068-1.063-0.106-1.593
			c-0.267,0.14-0.524,0.282-0.773,0.425c-0.128,0.542-0.253,1.084-0.376,1.626c-0.038-0.445-0.077-0.889-0.119-1.333
			c-0.302,0.184-0.59,0.372-0.867,0.562c-0.089,0.422-0.177,0.844-0.264,1.265c-0.036-0.334-0.074-0.667-0.112-1
			c-0.352,0.256-0.682,0.518-0.991,0.783c-0.047,0.25-0.094,0.499-0.14,0.748c-0.025-0.187-0.05-0.374-0.076-0.559
			c-3.402,3.038-4.093,6.62-2.827,9.947c1.267,3.326,4.164,5.543,8.726,5.549c-0.104-0.156-0.209-0.312-0.314-0.468
			c0.199,0.156,0.4,0.311,0.602,0.466c0.407-0.007,0.828-0.032,1.262-0.074c-0.193-0.274-0.388-0.548-0.582-0.821
			c0.345,0.257,0.69,0.514,1.039,0.769c0.333-0.042,0.673-0.093,1.021-0.157c-0.264-0.358-0.528-0.717-0.797-1.074
			c0.452,0.323,0.906,0.645,1.362,0.964c0.281-0.059,0.568-0.125,0.86-0.198c-0.323-0.421-0.649-0.841-0.979-1.259
			c0.535,0.365,1.072,0.729,1.612,1.092c0.246-0.069,0.497-0.143,0.749-0.221c-0.376-0.466-0.754-0.931-1.139-1.395
			c0.603,0.394,1.206,0.786,1.813,1.176c0.22-0.075,0.44-0.152,0.666-0.233c-0.422-0.5-0.848-0.998-1.276-1.495
			c0.656,0.412,1.315,0.821,1.979,1.228c0.196-0.08,0.396-0.162,0.593-0.25c-0.46-0.521-0.923-1.04-1.392-1.558
			c0.688,0.414,1.38,0.825,2.074,1.233c0.182-0.09,0.359-0.183,0.538-0.279c-0.481-0.521-0.967-1.041-1.457-1.56
			c0.697,0.402,1.397,0.8,2.102,1.196c0.171-0.101,0.342-0.205,0.512-0.311c-0.49-0.507-0.984-1.013-1.482-1.517
			c0.69,0.38,1.385,0.757,2.08,1.131c0.168-0.111,0.334-0.226,0.5-0.342c-0.487-0.483-0.98-0.965-1.476-1.444
			c0.671,0.354,1.345,0.704,2.021,1.052c0.168-0.123,0.336-0.25,0.502-0.377c-0.479-0.453-0.962-0.904-1.447-1.354
			c0.644,0.324,1.291,0.646,1.939,0.967c0.17-0.137,0.34-0.275,0.507-0.415c-0.463-0.419-0.931-0.836-1.398-1.253
			c0.612,0.295,1.228,0.586,1.844,0.877c0.173-0.15,0.345-0.299,0.515-0.451c-0.443-0.383-0.89-0.767-1.339-1.148
			c0.577,0.266,1.157,0.528,1.737,0.789c0.175-0.161,0.349-0.323,0.522-0.486c-0.423-0.348-0.847-0.697-1.272-1.043
			c0.54,0.237,1.083,0.471,1.625,0.704c0.179-0.173,0.354-0.346,0.53-0.521c-0.398-0.314-0.797-0.629-1.199-0.942
			c0.503,0.21,1.008,0.417,1.514,0.624c0.182-0.185,0.36-0.369,0.537-0.554c-0.375-0.283-0.75-0.567-1.126-0.848
			c0.467,0.186,0.938,0.369,1.406,0.552c0.183-0.194,0.363-0.389,0.541-0.584c-0.353-0.254-0.703-0.509-1.056-0.762
			c0.433,0.164,0.869,0.325,1.305,0.487c0.184-0.204,0.364-0.408,0.542-0.611c-0.33-0.229-0.659-0.458-0.992-0.686
			c0.403,0.146,0.81,0.288,1.213,0.432c0.185-0.213,0.364-0.425,0.542-0.635c-0.312-0.207-0.623-0.414-0.937-0.62
			c0.377,0.129,0.757,0.255,1.135,0.383c0.184-0.221,0.364-0.438,0.54-0.655c-0.297-0.188-0.593-0.377-0.893-0.565
			c0.357,0.116,0.716,0.229,1.073,0.343c0.184-0.227,0.361-0.451,0.533-0.67c-0.286-0.173-0.572-0.349-0.859-0.523
			c0.342,0.105,0.685,0.207,1.026,0.311c0.18-0.232,0.355-0.458,0.523-0.68c-0.281-0.164-0.563-0.328-0.844-0.491
			c0.332,0.097,0.666,0.191,0.999,0.286c0.179-0.236,0.35-0.464,0.512-0.686c-0.281-0.157-0.563-0.314-0.845-0.471
			c0.331,0.091,0.662,0.178,0.993,0.269c0.174-0.239,0.34-0.469,0.495-0.686c-0.289-0.155-0.575-0.309-0.864-0.461
			c0.335,0.087,0.673,0.17,1.011,0.256c0.173-0.245,0.331-0.472,0.476-0.683c-0.301-0.154-0.603-0.309-0.903-0.461
			c0.349,0.085,0.698,0.167,1.048,0.25c0.18-0.262,0.33-0.489,0.453-0.675c-0.167-0.082-0.333-0.163-0.501-0.246
			c0.07-0.172,0.142-0.344,0.211-0.516c-0.215-0.057-0.479-0.126-0.787-0.203c-0.206,0.294-0.412,0.588-0.615,0.883
			c0.124-0.314,0.245-0.63,0.367-0.945c-0.247-0.061-0.518-0.125-0.81-0.193c-0.194,0.288-0.391,0.575-0.583,0.862
			c0.114-0.306,0.226-0.612,0.338-0.919c-0.26-0.059-0.536-0.12-0.825-0.183c-0.188,0.287-0.377,0.573-0.563,0.86
			c0.106-0.304,0.212-0.608,0.317-0.913c-0.268-0.057-0.547-0.114-0.837-0.172c-0.186,0.292-0.373,0.584-0.556,0.878
			c0.102-0.31,0.202-0.62,0.303-0.928c-0.272-0.053-0.555-0.106-0.843-0.16c-0.187,0.305-0.375,0.609-0.56,0.915
			c0.099-0.321,0.195-0.642,0.294-0.962c-0.275-0.05-0.558-0.099-0.845-0.146c-0.189,0.324-0.383,0.646-0.572,0.97
			c0.099-0.339,0.193-0.678,0.291-1.015c-0.275-0.045-0.555-0.088-0.839-0.131c-0.198,0.347-0.397,0.693-0.594,1.041
			c0.098-0.362,0.191-0.724,0.288-1.086c-0.272-0.039-0.548-0.077-0.827-0.113c-0.207,0.376-0.416,0.751-0.62,1.128
			c0.098-0.39,0.191-0.781,0.285-1.171c-0.268-0.034-0.538-0.065-0.811-0.096c-0.218,0.41-0.438,0.82-0.651,1.231
			c0.097-0.424,0.188-0.848,0.283-1.271c-0.263-0.028-0.527-0.053-0.792-0.077c-0.229,0.449-0.458,0.898-0.683,1.347
			c0.095-0.46,0.186-0.921,0.276-1.381c-0.255-0.021-0.512-0.041-0.77-0.057c-0.239,0.491-0.479,0.981-0.715,1.472
			c0.092-0.501,0.18-1.001,0.269-1.501c-0.247-0.015-0.494-0.026-0.742-0.037c-0.25,0.536-0.5,1.07-0.746,1.606
			c0.087-0.542,0.174-1.083,0.256-1.625c-0.237-0.007-0.475-0.013-0.713-0.016c-0.26,0.581-0.519,1.162-0.772,1.744
			c0.083-0.583,0.161-1.167,0.237-1.749c-0.229,0-0.455,0.002-0.685,0.006c-0.267,0.626-0.533,1.254-0.794,1.88
			c0.073-0.622,0.146-1.245,0.212-1.866c-0.219,0.007-0.437,0.017-0.655,0.028c-0.271,0.67-0.541,1.342-0.806,2.012
			c0.064-0.659,0.124-1.317,0.181-1.975c-0.209,0.016-0.418,0.033-0.626,0.052c-0.273,0.711-0.544,1.421-0.811,2.131
			c0.051-0.688,0.099-1.375,0.143-2.062c-0.201,0.024-0.401,0.049-0.602,0.077c-0.271,0.743-0.539,1.485-0.801,2.229
			c0.037-0.707,0.069-1.414,0.099-2.119c-0.197,0.034-0.394,0.07-0.588,0.108c-0.263,0.763-0.521,1.526-0.774,2.29
			c0.021-0.713,0.039-1.424,0.053-2.133c-0.198,0.046-0.394,0.096-0.588,0.149c-0.247,0.766-0.49,1.533-0.729,2.3
			c0.004-0.698,0.005-1.394,0.003-2.089c-0.207,0.065-0.41,0.135-0.61,0.208c-0.225,0.744-0.443,1.488-0.66,2.232
			c-0.011-0.657-0.024-1.312-0.041-1.965C193.312,10.722,193.095,10.812,192.881,10.902z M217.473,11.69
			c0.148,0.033,0.296,0.066,0.444,0.099c0.148-0.228,0.229-0.355,0.229-0.355s-0.143-0.042-0.407-0.114
			C217.65,11.443,217.562,11.567,217.473,11.69z"/>
	</g>
	<g>
		<path fill="#231F20" d="M172.667,27.007l-0.357,2.736c2.417,0.064,3.185-0.06,4.996-0.649c1.649-0.563,3.197-1.126,4.707-1.861
			c3.011-1.479,5.882-3.12,8.755-4.739c2.872-1.617,5.732-3.237,8.682-4.676c2.948-1.405,5.986-2.767,9.274-3.151
			c-3.315,0.117-6.514,1.247-9.594,2.423c-3.088,1.21-6.091,2.608-9.086,3.991c-2.992,1.383-5.976,2.78-8.991,3.971
			c-1.507,0.591-3.025,1.13-4.533,1.511C175.026,26.952,173.917,27.167,172.667,27.007z"/>
	</g>
</g>
</svg>
